<?xml version="1.0" encoding="utf-8"?>
<!-- Generator: Adobe Illustrator 22.0.1, SVG Export Plug-In . SVG Version: 6.00 Build 0)  -->
<svg version="1.1" id="Layer_1" xmlns="http://www.w3.org/2000/svg" xmlns:xlink="http://www.w3.org/1999/xlink" x="0px" y="0px"
	 viewBox="-99.453 -105.945 454.907 481.89" enable-background="new -99.453 -105.945 454.907 481.89" xml:space="preserve">
<g transform="translate(0.000000, -1.000000)">
	<path fill="#B3B3B3" d="M127.285-104.897l-226.726,79.79l35.828,297.047l191.139,105.053L319.65,270.518L355.465-26.52
		L127.285-104.897z"/>
	<path fill="#A6120D" d="M332.849-9.353l-206.092-70.28v431.529l172.716-95.589L332.849-9.353z"/>
	<path fill="#DD1B16" d="M-73.998-8.086l30.702,265.66l170.05,94.321V-79.642L-73.998-8.086z"/>
	<path fill="#F2F2F2" d="M183.486,150.09l-56.73,26.526H66.963l-28.107,70.303l-52.28,0.968l140.18-311.85L183.486,150.09
		L183.486,150.09z M178.003,136.734L127.132,36.026l-41.726,98.975h41.348L178.003,136.734L178.003,136.734z"/>
	<path fill="#B3B3B3" d="M126.753-63.963l0.376,99.989l47.347,99.052h-47.615l-0.107,41.476l65.842,0.063l30.772,71.283
		l50.023,0.927L126.753-63.963z"/>
</g>
</svg>
